<svg xmlns="http://www.w3.org/2000/svg" viewBox="0 0 262.43 168.65"><defs><style>.cls-1{fill:#fff;}</style></defs><g id="Layer_2" data-name="Layer 2"><g id="Layer_1-2" data-name="Layer 1"><path class="cls-1" d="M262.07,0c-.89,34.09-28.36,64.06-61.42,65.65-20.55,1-41.28,0-61.84-1.4C115.22,62.63,91.69,59.88,68,62S23.63,73,6.1,89.15a19.08,19.08,0,0,1-3.79,2.91C9.42,75.57,20.86,62.76,35.53,52.7,50,42.75,66.34,37.35,83.34,33.57c-29.47-5.95-56.22.26-81.47,18.65a41.17,41.17,0,0,1,2.28-4.16C22,23.87,46.23,11,75.73,7.3,104.16,3.78,131.24,9.67,158,18.57a456.26,456.26,0,0,0,45.07,12.71C229.52,37.12,249,27,260.7,2.65,261,1.94,261.42,1.25,262.07,0Z"/><path class="cls-1" d="M156.59,156.15c-9,7.95-20.16,10.72-31.77,11.71-14.56,1.23-28.93.27-42.77-5a3.44,3.44,0,0,0-2.31-.24c-16.65,7.5-34,7.32-51.12,3.12C5,160-5.11,140.47,2.5,117.31c4.61-14,14.14-24,26.83-30.93,20-10.89,41.34-12.9,63.46-8.84a16.2,16.2,0,0,1,3,1.31c-2.52,6.34-5,12.47-7.5,18.84-10-2.38-19.69-2.8-29.3.2-14.25,4.46-24.25,16.42-24.67,29.48-.35,10.84,5.44,18.75,16.18,19.76,7.64.72,15.48-.61,23.23-1.14a40.82,40.82,0,0,0,5.55-1.23V158.3l1.25.23c1.69-3.69,3.59-7.29,5-11.09,1.13-3,2.54-3.53,5.61-2.49,9.5,3.22,19.24,5.44,29.39,4.42a18.94,18.94,0,0,0,5.77-1.43c6.23-2.8,7-8.85,1.5-12.93-2.9-2.15-6.42-3.46-9.65-5.14-5.29-2.77-11-5-15.79-8.41-11.09-8-12.11-21-3-31.23,5.39-6.07,12.41-9.51,20.05-11.6,15.57-4.28,31.25-4.14,46.92-.39a30.47,30.47,0,0,1,3.32,1.06,14.65,14.65,0,0,1,1.66,1c-2.54,6-4.94,11.6-7.1,16.69-8-1-15.5-2.49-23.06-2.83a24.8,24.8,0,0,0-11.42,2.75c-4.57,2.23-4.83,7.07-.74,10.11,2.9,2.15,6.36,3.55,9.61,5.19,5.19,2.62,10.72,4.69,15.57,7.82C168.22,129.09,169.21,145,156.59,156.15Z"/><path class="cls-1" d="M201.1,126.38c-1.23,10.83,4.73,19.58,15.52,20.66,7.95.79,16.13-.67,24.2-1.19a43.38,43.38,0,0,0,4.81-1c0,5.85.2,11-.14,16.13a5.12,5.12,0,0,1-3,3.68c-16.36,4.21-32.92,5.54-49.29.62-23.5-7.07-32.73-28.43-22.72-51.79,6.93-16.2,19.86-26,35.87-32a95.32,95.32,0,0,1,52.09-4.11,30.49,30.49,0,0,1,4,1.37c-2.57,6.42-5,12.56-7.55,18.9-9.95-2.36-19.69-3-29.25.25C211.92,102.55,202.81,111.38,201.1,126.38Z"/></g></g></svg>