<svg xmlns="http://www.w3.org/2000/svg" viewBox="0 0 216.66 208.05"><defs><style>.cls-1{fill:#fff;}</style></defs><g id="Layer_2" data-name="Layer 2"><g id="Layer_1-2" data-name="Layer 1"><path class="cls-1" d="M108.28,115.56h0Z"/><path class="cls-1" d="M171.15,128.09q-62.77,0-125.56,0c-3.84,0-5.16,1.07-4.36,5.2,3,15.29,5.57,30.64,8.36,46,1.73,9.54,3.56,19.08,5.36,28.71H161.27c4.68-25.51,9.29-50.7,13.92-75.89C175.8,128.73,173.94,128.08,171.15,128.09ZM121,172.37c-3.93,2.18-8.53,3.14-13.21,4.77-4.49-1.67-8.91-2.73-12.7-4.89s-3.51-5.82-.09-8.61c6-4.87,19.9-4.95,26.07-.14C124.69,166.34,125,170.14,121,172.37Z"/><path class="cls-1" d="M168.94,73.07c-6.73-27-21.16-49.41-43.36-66.31-12.15-9.26-23-8.81-35.33.12C75.87,17.28,65.4,31.1,57.51,46.69,53,55.56,48.91,65.07,47.15,74.75,43.9,92.6,65,115.52,83.34,115.56h37.84c4.3,0,8.6,0,12.91,0a10.54,10.54,0,0,0,5-1c6.24-3.69,12.82-7.06,18.35-11.66C166.62,95.27,172,85.19,168.94,73.07Zm-27.06,5.25C138.32,92.2,128.61,99.39,115.1,102c-15,2.89-30.54-3.23-37.21-15.19-2.39-4.3-3.54-9.51-4.26-14.44-.86-5.87,3.17-9.33,7.92-11.87,6.31-3.39,16.38-5.37,26.7-5.35.09-.38.17-.76.26-1.13,8,1.82,16.28,3,24,5.65C141.8,62.86,144.34,68.74,141.88,78.32Z"/><path class="cls-1" d="M215.28,164.87c-3.38,10.38-6.7,20.77-10,31.16-2.22,6.92-6.8,11.26-14.12,11.8-5.63.42-11.31.09-17.29.09,2.46-13.55,4.86-26.86,7.29-40.16,2.15-11.75,4.4-23.48,6.51-35.23,1.89-10.54-3.48-16.86-14.26-17-3.35,0-6.69,0-10,0l16.19-20c8.36,6.92,17.74,14,22.93,24.82,4.39,9.17,8.5,18.49,12.48,27.85A23.19,23.19,0,0,1,215.28,164.87Z"/><path class="cls-1" d="M52.85,115.59c-3,0-6.26,0-9.52,0-11.55,0-16.74,6.43-14.65,17.72q6.69,36.09,13.21,72.2c.13.71.2,1.42.3,2.1-6.34,0-12.59.41-18.75-.12-5.83-.5-9.89-4.21-11.78-9.74-3.85-11.29-8-22.53-10.92-34.06a28.58,28.58,0,0,1,.68-15.31c2.91-8.8,7.12-17.19,11-25.65C17.8,111,27.35,102.88,36.7,95.6,42.12,102.3,47.37,108.79,52.85,115.59Z"/></g></g></svg>